<?xml version="1.0" encoding="utf-8"?>
<!-- Generator: Adobe Illustrator 26.0.3, SVG Export Plug-In . SVG Version: 6.00 Build 0)  -->
<svg version="1.1" xmlns="http://www.w3.org/2000/svg" xmlns:xlink="http://www.w3.org/1999/xlink" x="0px" y="0px"
	 viewBox="0 0 3000 3000" style="enable-background:new 0 0 3000 3000;" xml:space="preserve">
<style type="text/css">
	.st0{fill:#FFE399;}
	.st1{display:none;fill:#F9AE85;}
	.st2{display:none;fill:#9ACEAE;}
	.st3{display:none;fill:#E0F0FA;}
	.st4{fill:#192D3D;}
	.st5{fill:#FFFFFF;}
</style>
<g id="background">
	<circle class="st0" cx="1500" cy="1499.14" r="1500"/>
	<circle class="st1" cx="1500" cy="1499.14" r="1500"/>
	<circle class="st2" cx="1500" cy="1499.14" r="1500"/>
	<circle class="st3" cx="1500" cy="1499.14" r="1500"/>
</g>
<g id="design">
	<g>
		<path class="st4" d="M2393.81,2271.74c0,46.48-37.68,84.15-84.16,84.15H690.34c-46.48,0-84.15-37.68-84.15-84.15V1167.21
			c0-30.82,16.85-59.18,43.92-73.91l809.58-440.68c25.08-13.65,55.38-13.65,80.46,0l809.73,440.69
			c27.08,14.73,43.93,43.09,43.93,73.92V2271.74z"/>
		<path class="st5" d="M1026.26,1667.62c511.68,382.95,947.5,0,947.5,0s-116.36,353.49-473.82,353.49
			C1097.7,2021.11,1026.26,1667.62,1026.26,1667.62z"/>
	</g>
</g>
</svg>
